<svg width="320" height="320" viewBox="0 0 320 320" fill="none" xmlns="http://www.w3.org/2000/svg">
<path d="M77.88 217.49L67.72 131.1V237.25H61.5V92.1499H67.3L79.3 197.49L91.21 92.1699H97.3V237.27H91.05L91.21 131.1L80.89 217.49H77.88Z" fill="#CDC6B6"/>
<path d="M133.021 78.51V241.67C133.021 253.343 128.878 259.177 120.591 259.17C112.304 259.163 108.178 253.33 108.211 241.67V78.51C108.211 66.8367 112.348 61 120.621 61C128.894 61 133.028 66.8367 133.021 78.51ZM126.811 240.9V79.28C126.916 75.8755 126.716 72.4685 126.211 69.1C125.304 65.3933 123.424 63.5367 120.571 63.53C116.444 63.53 114.378 68.7733 114.371 79.26V240.9C114.254 244.294 114.448 247.691 114.951 251.05C115.851 254.78 117.731 256.63 120.571 256.63C124.724 256.63 126.804 251.387 126.811 240.9Z" fill="#CDC6B6"/>
<path d="M143.941 237.25V92.15H156.731C158.506 92.0688 160.277 92.3616 161.931 93.0093C163.585 93.6571 165.084 94.6453 166.331 95.91C168.773 98.5712 170.06 102.092 169.911 105.7V223.7C170.059 227.308 168.772 230.828 166.331 233.49C165.086 234.757 163.587 235.746 161.933 236.394C160.278 237.042 158.506 237.334 156.731 237.25H143.941ZM150.141 94.03V235.36H153.621C157.748 235.36 160.525 234.42 161.951 232.54C163.111 231.04 163.691 228.153 163.691 223.88V105.51C163.691 101.25 163.048 98.27 161.761 96.57C160.471 94.88 157.761 94.03 153.621 94.03H150.141Z" fill="#CDC6B6"/>
<path d="M187.41 92.1499V237.25H180.82V92.1499H187.41Z" fill="#CDC6B6"/>
<path d="M203.781 125.61C203.729 131.17 204.618 136.698 206.411 141.96C206.911 143.46 209.297 149.097 213.571 158.87C217.077 166.87 219.271 172.26 220.151 175.04C222.02 180.613 222.972 186.452 222.971 192.33V225.03C222.971 233.697 218.637 238.03 209.971 238.03C201.691 238.03 197.551 233.697 197.551 225.03V191.52H203.761V224.45C203.761 232.23 205.827 236.12 209.961 236.12C214.481 236.12 216.741 232.234 216.741 224.46V195.71C216.82 189.681 216.062 183.671 214.491 177.85C212.741 172.345 210.664 166.948 208.271 161.69C203.511 150.924 201.127 145.474 201.121 145.34C198.763 139.681 197.549 133.611 197.551 127.48V104.18C197.551 95.5135 201.657 91.1802 209.871 91.1802C218.084 91.1802 222.194 95.5135 222.201 104.18V134.66H216.011V104.76C216.127 102.236 215.932 99.7069 215.431 97.2302C215.141 95.9999 214.427 94.9112 213.413 94.1557C212.4 93.4003 211.153 93.0265 209.891 93.1002C205.824 93.1002 203.787 96.9835 203.781 104.75V125.61Z" fill="#CDC6B6"/>
<path d="M251.76 162.16H238.21V237.25H232V92.1499H238.21V159.15H251.76V92.1499H257.97V237.25H251.76V162.16Z" fill="#CDC6B6"/>
<path d="M151.421 243.93V244.93C151.421 244.976 151.404 245.021 151.372 245.054C151.341 245.088 151.297 245.108 151.251 245.11H148.371V253.87C148.373 253.893 148.369 253.916 148.361 253.937C148.353 253.958 148.341 253.978 148.325 253.994C148.309 254.01 148.289 254.022 148.268 254.03C148.247 254.038 148.224 254.042 148.201 254.04H147.111V245.1H144.111V244.1C144.114 244.056 144.132 244.014 144.164 243.983C144.195 243.951 144.237 243.933 144.281 243.93H151.421Z" fill="#CDC6B6"/>
<path d="M152.471 251.8V243.93H153.561C153.607 243.93 153.651 243.948 153.685 243.979C153.718 244.011 153.738 244.054 153.741 244.1V251.9C153.741 252.165 153.846 252.42 154.034 252.607C154.221 252.795 154.475 252.9 154.741 252.9H157.741C158.006 252.9 158.26 252.795 158.448 252.607C158.635 252.42 158.741 252.165 158.741 251.9V244.1C158.743 244.054 158.763 244.011 158.797 243.979C158.83 243.948 158.875 243.93 158.921 243.93H160.001V251.8C159.998 252.404 159.757 252.982 159.33 253.409C158.903 253.836 158.325 254.078 157.721 254.08H154.721C154.121 254.072 153.549 253.829 153.128 253.402C152.707 252.975 152.471 252.4 152.471 251.8V251.8Z" fill="#CDC6B6"/>
<path d="M168.531 252.2C168.401 251.2 168.401 250.3 168.341 249.35V244.1C168.343 244.056 168.362 244.014 168.393 243.983C168.425 243.951 168.466 243.933 168.511 243.93H169.601V254.02H168.431C168.379 254.017 168.328 254.001 168.283 253.975C168.238 253.949 168.2 253.913 168.171 253.87L163.581 245.3C163.539 245.24 163.484 245.19 163.42 245.155C163.356 245.121 163.284 245.102 163.211 245.1H162.981V253.86C162.981 253.905 162.963 253.948 162.931 253.98C162.899 254.012 162.856 254.03 162.811 254.03H161.721V244.1C161.723 244.056 161.742 244.014 161.773 243.983C161.805 243.951 161.846 243.933 161.891 243.93H163.431C163.663 243.943 163.888 244.013 164.087 244.133C164.285 244.253 164.452 244.421 164.571 244.62L167.321 249.79L168.531 252.2Z" fill="#CDC6B6"/>
<path d="M172.491 246.1V248.65C172.573 248.561 172.674 248.49 172.786 248.444C172.898 248.397 173.019 248.376 173.141 248.38H177.571V249.38C177.568 249.425 177.55 249.466 177.518 249.498C177.487 249.529 177.445 249.548 177.401 249.55H172.491V251.85C172.491 252.115 172.596 252.37 172.784 252.557C172.971 252.745 173.226 252.85 173.491 252.85H177.851C177.895 252.853 177.937 252.871 177.968 252.903C178 252.934 178.018 252.976 178.021 253.02V254.02H173.511C173.21 254.023 172.912 253.966 172.634 253.852C172.355 253.739 172.102 253.571 171.889 253.359C171.676 253.147 171.507 252.894 171.393 252.617C171.278 252.339 171.219 252.041 171.221 251.74V246.22C171.219 245.919 171.278 245.621 171.392 245.342C171.507 245.064 171.676 244.811 171.889 244.598C172.101 244.385 172.354 244.216 172.633 244.102C172.911 243.987 173.21 243.929 173.511 243.93H178.041V244.93C178.041 244.976 178.023 245.021 177.992 245.054C177.96 245.088 177.917 245.108 177.871 245.11H173.511C173.379 245.108 173.247 245.131 173.124 245.18C173.001 245.228 172.889 245.3 172.794 245.392C172.699 245.484 172.624 245.594 172.572 245.716C172.52 245.837 172.492 245.968 172.491 246.1Z" fill="#CDC6B6"/>
<path d="M184.65 253.85V243.93H185.74C185.786 243.93 185.831 243.948 185.864 243.979C185.898 244.011 185.918 244.054 185.92 244.1V254.02H184.82C184.775 254.02 184.732 254.002 184.7 253.97C184.668 253.939 184.65 253.895 184.65 253.85V253.85Z" fill="#CDC6B6"/>
<path d="M194.561 252.2C194.421 251.2 194.421 250.3 194.351 249.35V244.1C194.353 244.054 194.374 244.011 194.407 243.979C194.441 243.948 194.485 243.93 194.531 243.93H195.621V254.02H194.461C194.408 254.019 194.357 254.005 194.312 253.979C194.266 253.953 194.228 253.915 194.201 253.87L189.601 245.3C189.558 245.237 189.499 245.186 189.431 245.151C189.363 245.116 189.287 245.098 189.211 245.1H188.981V253.86C188.981 253.905 188.963 253.948 188.931 253.98C188.899 254.012 188.856 254.03 188.811 254.03H187.711V244.1C187.713 244.054 187.734 244.011 187.767 243.979C187.801 243.948 187.845 243.93 187.891 243.93H189.421C189.653 243.943 189.878 244.013 190.077 244.133C190.276 244.253 190.442 244.421 190.561 244.62L193.301 249.79L194.561 252.2Z" fill="#CDC6B6"/>
<path d="M204.011 243.93V244.93C204.011 244.978 203.992 245.024 203.959 245.057C203.925 245.091 203.879 245.11 203.831 245.11H200.961V253.87C200.961 253.893 200.957 253.916 200.948 253.938C200.938 253.959 200.925 253.978 200.908 253.994C200.891 254.01 200.871 254.022 200.85 254.03C200.828 254.038 200.805 254.042 200.781 254.04H199.691V245.1H196.691V244.1C196.694 244.054 196.714 244.011 196.748 243.979C196.781 243.948 196.825 243.93 196.871 243.93H204.011Z" fill="#CDC6B6"/>
<path d="M207.311 254.1C206.707 254.1 206.127 253.86 205.699 253.432C205.271 253.005 205.031 252.425 205.031 251.82V246.18C205.031 245.575 205.271 244.995 205.699 244.568C206.127 244.14 206.707 243.9 207.311 243.9H210.311C210.917 243.9 211.498 244.14 211.927 244.567C212.356 244.994 212.599 245.574 212.601 246.18V251.82C212.599 252.426 212.356 253.005 211.927 253.433C211.498 253.86 210.917 254.1 210.311 254.1H207.311ZM206.311 246.1V251.94C206.311 252.205 206.417 252.459 206.604 252.647C206.792 252.835 207.046 252.94 207.311 252.94H210.311C210.576 252.94 210.831 252.835 211.018 252.647C211.206 252.459 211.311 252.205 211.311 251.94V246.1C211.311 245.835 211.206 245.58 211.018 245.393C210.831 245.205 210.576 245.1 210.311 245.1H207.311C207.178 245.097 207.046 245.121 206.922 245.17C206.799 245.219 206.686 245.292 206.591 245.386C206.496 245.479 206.421 245.59 206.369 245.713C206.318 245.835 206.291 245.967 206.291 246.1H206.311Z" fill="#CDC6B6"/>
<path d="M224.21 252.87C224.476 252.87 224.73 252.765 224.917 252.577C225.105 252.39 225.21 252.135 225.21 251.87V250.65C225.206 250.578 225.181 250.509 225.138 250.45C225.096 250.392 225.038 250.346 224.97 250.32L219.81 248.6C219.604 248.522 219.425 248.386 219.293 248.209C219.162 248.031 219.085 247.82 219.07 247.6V246C219.08 245.715 219.148 245.435 219.27 245.177C219.392 244.92 219.566 244.69 219.781 244.503C219.996 244.315 220.247 244.174 220.518 244.087C220.79 244.001 221.077 243.971 221.36 244H226.21V245C226.212 245.023 226.208 245.046 226.2 245.068C226.192 245.09 226.18 245.11 226.164 245.127C226.148 245.144 226.129 245.157 226.108 245.166C226.086 245.175 226.064 245.18 226.04 245.18H221.43C221.178 245.179 220.935 245.274 220.75 245.444C220.565 245.615 220.45 245.849 220.43 246.1V247.41C220.429 247.484 220.452 247.556 220.495 247.615C220.539 247.675 220.6 247.718 220.67 247.74L225.84 249.45C226.038 249.535 226.208 249.673 226.33 249.85C226.452 250.027 226.521 250.235 226.53 250.45V251.89C226.537 252.18 226.485 252.468 226.377 252.737C226.268 253.006 226.106 253.25 225.9 253.454C225.694 253.658 225.449 253.818 225.179 253.924C224.909 254.03 224.62 254.08 224.33 254.07H219.18V253.07C219.18 253.047 219.185 253.024 219.194 253.003C219.203 252.981 219.217 252.962 219.234 252.946C219.25 252.93 219.27 252.918 219.292 252.91C219.314 252.902 219.337 252.899 219.36 252.9L224.21 252.87Z" fill="#CDC6B6"/>
<path d="M234.652 243.93V244.93C234.653 244.953 234.65 244.977 234.642 244.998C234.634 245.02 234.622 245.04 234.606 245.057C234.59 245.074 234.571 245.087 234.549 245.096C234.528 245.106 234.505 245.11 234.482 245.11H231.602V253.87C231.603 253.893 231.6 253.916 231.592 253.937C231.584 253.958 231.571 253.978 231.555 253.994C231.539 254.01 231.52 254.022 231.499 254.03C231.477 254.038 231.454 254.042 231.432 254.04H230.342V245.1H227.342V244.1C227.344 244.056 227.363 244.014 227.394 243.983C227.426 243.951 227.467 243.933 227.512 243.93H234.652Z" fill="#CDC6B6"/>
<path d="M243.751 243.93L241.751 249.16C241.687 249.377 241.556 249.568 241.376 249.704C241.196 249.841 240.977 249.917 240.751 249.92H240.151V253.85C240.148 253.896 240.128 253.939 240.095 253.971C240.061 254.003 240.017 254.02 239.971 254.02H238.871V249.92H238.331C238.097 249.927 237.867 249.858 237.676 249.722C237.484 249.587 237.342 249.393 237.271 249.17L235.211 243.93H236.401C236.451 243.935 236.499 243.953 236.541 243.981C236.582 244.008 236.617 244.046 236.641 244.09L238.321 248.49C238.352 248.556 238.4 248.613 238.459 248.655C238.519 248.697 238.588 248.723 238.661 248.73H240.351C240.425 248.723 240.496 248.697 240.557 248.655C240.618 248.613 240.668 248.556 240.701 248.49L242.381 244.09C242.405 244.046 242.439 244.008 242.481 243.981C242.523 243.953 242.571 243.935 242.621 243.93H243.751Z" fill="#CDC6B6"/>
<path d="M244.842 251.7V244.1C244.844 244.054 244.865 244.011 244.898 243.979C244.931 243.948 244.976 243.93 245.022 243.93H246.112V251.82C246.105 251.956 246.126 252.091 246.173 252.218C246.22 252.345 246.293 252.462 246.386 252.56C246.48 252.658 246.593 252.736 246.717 252.79C246.842 252.843 246.976 252.87 247.112 252.87H251.302C251.348 252.87 251.392 252.888 251.426 252.919C251.459 252.951 251.479 252.994 251.482 253.04V254.04H247.112C246.502 254.027 245.921 253.774 245.497 253.336C245.072 252.898 244.836 252.31 244.842 251.7Z" fill="#CDC6B6"/>
<path d="M253.84 246.1V248.65C253.927 248.56 254.031 248.49 254.146 248.443C254.262 248.397 254.386 248.375 254.51 248.38H258.93V249.38C258.928 249.425 258.909 249.466 258.878 249.498C258.847 249.529 258.805 249.548 258.76 249.55H253.84V251.85C253.84 252.115 253.946 252.37 254.133 252.557C254.321 252.745 254.575 252.85 254.84 252.85H259.21C259.255 252.853 259.297 252.871 259.328 252.903C259.359 252.934 259.378 252.976 259.38 253.02V254.02H254.85C254.551 254.022 254.254 253.963 253.976 253.849C253.699 253.735 253.447 253.567 253.235 253.355C253.023 253.143 252.855 252.892 252.741 252.614C252.627 252.337 252.569 252.04 252.57 251.74V246.22C252.568 245.92 252.625 245.621 252.738 245.343C252.852 245.065 253.02 244.812 253.232 244.599C253.444 244.386 253.696 244.217 253.974 244.102C254.252 243.987 254.55 243.929 254.85 243.93H259.38V244.93C259.38 244.976 259.363 245.021 259.331 245.054C259.3 245.088 259.256 245.108 259.21 245.11H254.85C254.719 245.109 254.589 245.133 254.467 245.182C254.345 245.232 254.234 245.304 254.14 245.396C254.047 245.488 253.972 245.597 253.92 245.718C253.869 245.839 253.842 245.969 253.84 246.1Z" fill="#CDC6B6"/>
<path d="M99.07 78.3999H61V79.8899H99.07V78.3999Z" fill="#CDC6B6"/>
<path d="M99.07 251.72H61V253.21H99.07V251.72Z" fill="#CDC6B6"/>
<path d="M258.702 78.3999H143.842V79.8899H258.702V78.3999Z" fill="#CDC6B6"/>
</svg>
