<svg width="120" height="120" viewBox="0 0 120 120" fill="none" xmlns="http://www.w3.org/2000/svg">
<path d="M29.3198 81.3926L25.5333 49.1956V88.7571H23.2151V34.6792H25.3767L29.8491 73.9387L34.2878 34.6866H36.5575V88.7645H34.2282L34.2878 49.1956L30.4416 81.3926H29.3198Z" fill="white"/>
<path d="M49.8702 29.5956V90.4044C49.8702 94.755 48.326 96.929 45.2376 96.9265C42.1492 96.924 40.6112 94.75 40.6236 90.4044V29.5956C40.6236 25.2451 42.1653 23.0698 45.2488 23.0698C48.3322 23.0698 49.8726 25.2451 49.8702 29.5956ZM47.5557 90.1174V29.8826C47.595 28.6138 47.5201 27.344 47.3321 26.0886C46.9942 24.7071 46.2935 24.0152 45.2301 24.0127C43.6921 24.0127 42.9219 25.9668 42.9194 29.8752V90.1174C42.8758 91.3823 42.9482 92.6485 43.1356 93.9002C43.471 95.2904 44.1717 95.9799 45.2301 95.9799C46.7781 95.9799 47.5533 94.0257 47.5557 90.1174Z" fill="white"/>
<path d="M53.94 88.7571V34.6792H58.7067C59.368 34.6489 60.0283 34.7581 60.6447 34.9995C61.261 35.2409 61.8198 35.6092 62.2846 36.0805C63.1945 37.0723 63.6743 38.3844 63.6188 39.7292V83.7071C63.6739 85.0519 63.1942 86.3637 62.2846 87.3558C61.8203 87.8278 61.2617 88.1967 60.6452 88.4381C60.0287 88.6796 59.3681 88.7883 58.7067 88.7571H53.94ZM56.2507 35.3799V88.0527H57.5477C59.0856 88.0527 60.1205 87.7024 60.6522 87.0017C61.0845 86.4427 61.3007 85.3668 61.3007 83.7742V39.6584C61.3007 38.0707 61.0609 36.9601 60.5814 36.3265C60.1006 35.6966 59.0906 35.3799 57.5477 35.3799H56.2507Z" fill="white"/>
<path d="M70.141 34.6792V88.7571H67.6849V34.6792H70.141Z" fill="white"/>
<path d="M76.242 47.1495C76.2225 49.2215 76.5539 51.2817 77.2222 53.2431C77.4085 53.8021 78.298 55.9029 79.8907 59.5453C81.1976 62.5269 82.015 64.5357 82.343 65.5718C83.0397 67.6487 83.3946 69.825 83.394 72.0157V84.2028C83.394 87.4328 81.779 89.0478 78.549 89.0478C75.4631 89.0478 73.9201 87.4328 73.9201 84.2028V71.7138H76.2345V83.9866C76.2345 86.8862 77.0048 88.3359 78.5452 88.3359C80.2298 88.3359 81.0721 86.8874 81.0721 83.9903V73.2754C81.1015 71.0285 80.8193 68.7884 80.2335 66.619C79.5813 64.5671 78.8072 62.556 77.9154 60.5963C76.1414 56.5836 75.2531 54.5525 75.2506 54.5028C74.3717 52.3937 73.9195 50.1313 73.9201 47.8465V39.1627C73.9201 35.9327 75.4507 34.3177 78.5117 34.3177C81.5728 34.3177 83.1045 35.9327 83.107 39.1627V50.5224H80.8V39.3788C80.8432 38.4381 80.7706 37.4955 80.5839 36.5725C80.4759 36.1139 80.2096 35.7082 79.832 35.4266C79.4543 35.1451 78.9894 35.0058 78.5192 35.0332C77.0035 35.0332 76.2445 36.4805 76.242 39.3751V47.1495Z" fill="white"/>
<path d="M94.1239 60.7715H89.0739V88.7571H86.7594V34.6792H89.0739V59.6497H94.1239V34.6792H96.4383V88.7571H94.1239V60.7715Z" fill="white"/>
<path d="M56.7277 91.2466V91.6193C56.7278 91.6365 56.7212 91.653 56.7094 91.6655C56.6976 91.678 56.6815 91.6855 56.6644 91.6864H55.591V94.9512C55.5916 94.9597 55.5903 94.9682 55.5873 94.9761C55.5843 94.9841 55.5797 94.9913 55.5737 94.9973C55.5677 95.0033 55.5605 95.0079 55.5525 95.0109C55.5446 95.0139 55.5361 95.0151 55.5277 95.0146H55.1214V91.6827H54.0033V91.31C54.0042 91.2935 54.0112 91.2779 54.0229 91.2662C54.0346 91.2545 54.0502 91.2475 54.0667 91.2466H56.7277Z" fill="white"/>
<path d="M57.1191 94.1798V91.2466H57.5253C57.5425 91.2466 57.559 91.2532 57.5715 91.265C57.584 91.2767 57.5914 91.2929 57.5924 91.31V94.217C57.5924 94.3159 57.6317 94.4107 57.7016 94.4806C57.7714 94.5505 57.8662 94.5897 57.9651 94.5897H59.0832C59.182 94.5897 59.2768 94.5505 59.3467 94.4806C59.4166 94.4107 59.4559 94.3159 59.4559 94.217V91.31C59.4568 91.2929 59.4643 91.2767 59.4768 91.265C59.4893 91.2532 59.5058 91.2466 59.5229 91.2466H59.9254V94.1798C59.9245 94.4048 59.8346 94.6204 59.6755 94.7795C59.5163 94.9387 59.3008 95.0285 59.0757 95.0295H57.9576C57.7342 95.0266 57.5209 94.9357 57.364 94.7767C57.207 94.6177 57.1191 94.4032 57.1191 94.1798Z" fill="white"/>
<path d="M63.1045 94.3288C63.0561 93.9561 63.0561 93.6207 63.0337 93.2666V91.31C63.0346 91.2935 63.0416 91.2779 63.0533 91.2662C63.065 91.2545 63.0806 91.2475 63.0971 91.2466H63.5033V95.0071H63.0673C63.0479 95.0058 63.0291 95.0001 63.0123 94.9904C62.9955 94.9808 62.9812 94.9673 62.9704 94.9512L61.2597 91.7572C61.2443 91.7347 61.2238 91.7162 61.1998 91.7033C61.1758 91.6903 61.1491 91.6833 61.1218 91.6827H61.0361V94.9475C61.0361 94.9643 61.0294 94.9804 61.0175 94.9923C61.0056 95.0042 60.9895 95.0108 60.9727 95.0108H60.5665V91.31C60.5674 91.2935 60.5743 91.2779 60.586 91.2662C60.5977 91.2545 60.6133 91.2475 60.6298 91.2466H61.2038C61.2903 91.2515 61.3742 91.2775 61.4483 91.3223C61.5223 91.3671 61.5843 91.4295 61.6287 91.5038L62.6536 93.4306L63.1045 94.3288Z" fill="white"/>
<path d="M64.5804 92.0554V93.0058C64.6111 92.9725 64.6487 92.9462 64.6905 92.9289C64.7323 92.9115 64.7774 92.9034 64.8227 92.9052H66.4737V93.2779C66.4728 93.2944 66.4658 93.31 66.4541 93.3217C66.4425 93.3334 66.4269 93.3403 66.4103 93.3412H64.5804V94.1984C64.5804 94.2973 64.6197 94.392 64.6896 94.4619C64.7595 94.5318 64.8543 94.5711 64.9531 94.5711H66.5781C66.5946 94.572 66.6102 94.579 66.6219 94.5907C66.6336 94.6023 66.6405 94.6179 66.6414 94.6345V95.0072H64.9606C64.8485 95.0081 64.7374 94.9869 64.6336 94.9446C64.5299 94.9023 64.4356 94.8398 64.3562 94.7607C64.2768 94.6816 64.2139 94.5876 64.1711 94.484C64.1284 94.3805 64.1066 94.2695 64.1071 94.1574V92.1001C64.1066 91.9879 64.1283 91.8767 64.1711 91.7729C64.2138 91.6692 64.2766 91.5749 64.356 91.4955C64.4353 91.4162 64.5296 91.3533 64.6334 91.3106C64.7371 91.2679 64.8483 91.2462 64.9606 91.2467H66.6489V91.6194C66.6489 91.6365 66.6423 91.653 66.6306 91.6655C66.6188 91.678 66.6026 91.6855 66.5855 91.6864H64.9606C64.9113 91.6855 64.8623 91.6942 64.8165 91.7123C64.7707 91.7304 64.7289 91.7573 64.6935 91.7916C64.6582 91.8259 64.63 91.8669 64.6106 91.9122C64.5911 91.9575 64.5809 92.0062 64.5804 92.0554Z" fill="white"/>
<path d="M69.1124 94.9438V91.2466H69.5186C69.5358 91.2466 69.5523 91.2532 69.5648 91.265C69.5773 91.2767 69.5847 91.2929 69.5857 91.31V95.0071H69.1757C69.1589 95.0071 69.1428 95.0005 69.1309 94.9886C69.119 94.9767 69.1124 94.9606 69.1124 94.9438Z" fill="white"/>
<path d="M72.8058 94.3288C72.7536 93.9561 72.7536 93.6207 72.7275 93.2666V91.31C72.7284 91.2929 72.7359 91.2767 72.7484 91.265C72.7609 91.2532 72.7774 91.2466 72.7946 91.2466H73.2008V95.0071H72.7685C72.7489 95.0068 72.7298 95.0015 72.7128 94.9917C72.6959 94.9819 72.6817 94.968 72.6716 94.9512L70.9572 91.7572C70.9411 91.7337 70.9193 91.7146 70.894 91.7015C70.8686 91.6885 70.8404 91.682 70.8118 91.6827H70.7261V94.9475C70.7261 94.9643 70.7194 94.9804 70.7076 94.9923C70.6957 95.0042 70.6796 95.0108 70.6628 95.0108H70.2528V91.31C70.2537 91.2929 70.2612 91.2767 70.2737 91.265C70.2862 91.2532 70.3027 91.2466 70.3199 91.2466H70.8901C70.9766 91.2515 71.0605 91.2775 71.1346 91.3223C71.2087 91.3671 71.2706 91.4295 71.315 91.5038L72.3362 93.4306L72.8058 94.3288Z" fill="white"/>
<path d="M76.3277 91.2466V91.6193C76.3277 91.6371 76.3207 91.6542 76.3081 91.6668C76.2955 91.6794 76.2784 91.6864 76.2606 91.6864H75.191V94.9512C75.191 94.9599 75.1893 94.9684 75.1859 94.9764C75.1824 94.9843 75.1774 94.9915 75.1712 94.9974C75.1649 95.0033 75.1574 95.0079 75.1493 95.0109C75.1412 95.0138 75.1326 95.0151 75.1239 95.0146H74.7177V91.6827H73.5996V91.31C73.6006 91.2929 73.608 91.2767 73.6205 91.265C73.633 91.2532 73.6495 91.2466 73.6667 91.2466H76.3277Z" fill="white"/>
<path d="M77.5576 95.037C77.3322 95.037 77.1161 94.9474 76.9567 94.7881C76.7974 94.6287 76.7079 94.4126 76.7079 94.1872V92.0852C76.7079 91.8599 76.7974 91.6437 76.9567 91.4844C77.1161 91.325 77.3322 91.2355 77.5576 91.2355H78.6757C78.9014 91.2355 79.1179 91.3249 79.2779 91.4841C79.4378 91.6434 79.5282 91.8595 79.5292 92.0852V94.1872C79.5282 94.4129 79.4378 94.6291 79.2779 94.7883C79.1179 94.9476 78.9014 95.037 78.6757 95.037H77.5576ZM77.1849 92.0554V94.232C77.1849 94.3308 77.2242 94.4256 77.2941 94.4955C77.364 94.5654 77.4588 94.6046 77.5576 94.6046H78.6757C78.7745 94.6046 78.8693 94.5654 78.9392 94.4955C79.0091 94.4256 79.0484 94.3308 79.0484 94.232V92.0554C79.0484 91.9566 79.0091 91.8618 78.9392 91.7919C78.8693 91.722 78.7745 91.6827 78.6757 91.6827H77.5576C77.508 91.6817 77.4588 91.6906 77.4127 91.7089C77.3666 91.7272 77.3246 91.7545 77.2892 91.7892C77.2538 91.8239 77.2257 91.8653 77.2065 91.911C77.1873 91.9568 77.1775 92.0058 77.1775 92.0554H77.1849Z" fill="white"/>
<path d="M83.8561 94.5785C83.955 94.5785 84.0498 94.5393 84.1197 94.4694C84.1896 94.3995 84.2288 94.3047 84.2288 94.2058V93.7512C84.2272 93.7243 84.2179 93.6984 84.202 93.6766C84.1862 93.6548 84.1644 93.638 84.1394 93.6282L82.2163 92.9871C82.1394 92.958 82.0725 92.9074 82.0236 92.8413C81.9747 92.7752 81.9459 92.6965 81.9405 92.6144V92.0181C81.944 91.9119 81.9694 91.8076 82.0149 91.7116C82.0605 91.6156 82.1253 91.53 82.2053 91.4601C82.2854 91.3902 82.3789 91.3375 82.4802 91.3052C82.5814 91.273 82.6882 91.262 82.794 91.2727H84.6015V91.6454C84.602 91.6541 84.6008 91.6627 84.5978 91.6708C84.5949 91.6789 84.5903 91.6864 84.5843 91.6927C84.5784 91.699 84.5712 91.704 84.5633 91.7074C84.5554 91.7108 84.5468 91.7125 84.5382 91.7125H82.8201C82.7262 91.7122 82.6356 91.7474 82.5665 91.8109C82.4974 91.8745 82.4549 91.9618 82.4474 92.0554V92.5436C82.447 92.571 82.4554 92.5979 82.4716 92.62C82.4877 92.6422 82.5106 92.6586 82.5368 92.6666L84.4636 93.3039C84.5373 93.3355 84.6005 93.3872 84.646 93.4532C84.6915 93.5191 84.7174 93.5966 84.7208 93.6766V94.2133C84.7234 94.3213 84.7039 94.4288 84.6635 94.529C84.6231 94.6292 84.5627 94.7202 84.4859 94.7962C84.4092 94.8723 84.3177 94.9319 84.2171 94.9714C84.1165 95.0108 84.0089 95.0293 83.9009 95.0258H81.9815V94.6531C81.9815 94.6444 81.9832 94.6359 81.9866 94.6279C81.9901 94.62 81.9951 94.6128 82.0013 94.6069C82.0076 94.601 82.0151 94.5964 82.0232 94.5934C82.0313 94.5905 82.0399 94.5892 82.0486 94.5897L83.8561 94.5785Z" fill="white"/>
<path d="M87.7471 91.2466V91.6193C87.7476 91.628 87.7463 91.6366 87.7434 91.6447C87.7404 91.6529 87.7358 91.6603 87.7299 91.6666C87.7239 91.6729 87.7168 91.6779 87.7088 91.6813C87.7009 91.6847 87.6924 91.6864 87.6837 91.6864H86.6103V94.9512C86.6109 94.9597 86.6096 94.9682 86.6066 94.9761C86.6037 94.9841 86.599 94.9913 86.593 94.9973C86.587 95.0033 86.5798 95.0079 86.5719 95.0109C86.5639 95.0139 86.5555 95.0151 86.547 95.0146H86.1408V91.6827H85.0227V91.31C85.0236 91.2935 85.0305 91.2779 85.0422 91.2662C85.0539 91.2545 85.0695 91.2475 85.086 91.2466H87.7471Z" fill="white"/>
<path d="M91.1386 91.2466L90.3932 93.1958C90.3694 93.2766 90.3204 93.3476 90.2533 93.3986C90.1863 93.4496 90.1047 93.4778 90.0205 93.4791H89.7969V94.9438C89.7959 94.9609 89.7884 94.977 89.776 94.9888C89.7635 95.0006 89.747 95.0072 89.7298 95.0071H89.3198V93.4791H89.1186C89.0313 93.4816 88.9456 93.4557 88.8743 93.4053C88.8031 93.3549 88.7501 93.2827 88.7235 93.1996L87.9558 91.2466H88.3993C88.4179 91.2486 88.4358 91.255 88.4514 91.2654C88.4669 91.2758 88.4798 91.2898 88.4887 91.3063L89.1148 92.9461C89.1264 92.9708 89.1441 92.992 89.1663 93.0076C89.1886 93.0233 89.2145 93.033 89.2416 93.0356H89.8714C89.8989 93.0329 89.9253 93.0233 89.9481 93.0076C89.9709 92.992 89.9894 92.9708 90.0019 92.9461L90.628 91.3063C90.6369 91.2898 90.6498 91.2758 90.6654 91.2654C90.6809 91.255 90.6988 91.2486 90.7174 91.2466H91.1386Z" fill="white"/>
<path d="M91.5448 94.1425V91.31C91.5458 91.2929 91.5533 91.2767 91.5657 91.265C91.5782 91.2532 91.5947 91.2466 91.6119 91.2466H92.0181V94.1872C92.0156 94.2377 92.0234 94.2882 92.041 94.3356C92.0586 94.3829 92.0856 94.4263 92.1205 94.4629C92.1553 94.4995 92.1973 94.5286 92.2438 94.5485C92.2902 94.5684 92.3403 94.5786 92.3908 94.5785H93.9524C93.9696 94.5785 93.9861 94.5851 93.9986 94.5968C94.0111 94.6086 94.0186 94.6247 94.0195 94.6419V95.0146H92.3908C92.1635 95.0097 91.9472 94.9154 91.7888 94.7522C91.6305 94.5889 91.5428 94.3699 91.5448 94.1425Z" fill="white"/>
<path d="M94.8991 92.0554V93.0058C94.9312 92.9723 94.9701 92.946 95.0131 92.9287C95.0562 92.9113 95.1024 92.9033 95.1488 92.9052H96.7961V93.2779C96.7952 93.2944 96.7882 93.31 96.7765 93.3217C96.7648 93.3334 96.7492 93.3403 96.7327 93.3412H94.8991V94.1984C94.8991 94.2973 94.9383 94.3921 95.0082 94.4619C95.0781 94.5318 95.1729 94.5711 95.2718 94.5711H96.9004C96.9169 94.572 96.9325 94.579 96.9442 94.5907C96.9559 94.6023 96.9629 94.6179 96.9638 94.6345V95.0072H95.2755C95.1638 95.0076 95.053 94.986 94.9497 94.9435C94.8464 94.901 94.7525 94.8384 94.6735 94.7594C94.5945 94.6804 94.532 94.5865 94.4894 94.4832C94.4469 94.3799 94.4253 94.2691 94.4258 94.1574V92.1001C94.4248 91.9881 94.446 91.877 94.4883 91.7732C94.5307 91.6695 94.5931 91.5752 94.6722 91.4958C94.7513 91.4164 94.8453 91.3535 94.9489 91.3107C95.0524 91.2679 95.1634 91.2462 95.2755 91.2467H96.9638V91.6194C96.9638 91.6365 96.9573 91.653 96.9455 91.6655C96.9337 91.678 96.9176 91.6855 96.9004 91.6864H95.2755C95.2265 91.686 95.178 91.6951 95.1326 91.7134C95.0872 91.7317 95.0458 91.7587 95.0109 91.793C94.9759 91.8272 94.948 91.868 94.9289 91.9131C94.9097 91.9581 94.8996 92.0065 94.8991 92.0554Z" fill="white"/>
<path d="M37.2172 29.5546H23.0288V30.11H37.2172V29.5546Z" fill="white"/>
<path d="M37.2172 94.1499H23.0288V94.7053H37.2172V94.1499Z" fill="white"/>
<path d="M96.7104 29.5546H53.9027V30.11H96.7104V29.5546Z" fill="white"/>
<path d="M116.724 2.74303H3.28344V117.16H116.724V2.74303Z" stroke="white" stroke-miterlimit="10"/>
</svg>
