<svg width="82" height="30" viewBox="0 0 82 30" fill="none" xmlns="http://www.w3.org/2000/svg">
<path d="M55.345 8.039V24H53.64C53.3833 24 53.167 23.9597 52.991 23.879C52.815 23.791 52.6427 23.6443 52.474 23.439L44.521 13.319C44.543 13.5757 44.5577 13.8287 44.565 14.078C44.5797 14.3273 44.587 14.5583 44.587 14.771V24H41.672V8.039H43.41C43.5493 8.039 43.6667 8.04633 43.762 8.061C43.8647 8.06833 43.9563 8.094 44.037 8.138C44.1177 8.17467 44.1947 8.226 44.268 8.292C44.3413 8.358 44.422 8.446 44.51 8.556L52.518 18.72C52.4887 18.4413 52.4667 18.1737 52.452 17.917C52.4373 17.653 52.43 17.4037 52.43 17.169V8.039H55.345Z" fill="white"/>
<path d="M62.0096 10.624V14.727H67.3336V17.224H62.0096V21.415H68.8516V24H58.6876V8.039H68.8516V10.624H62.0096Z" fill="white"/>
<path d="M79.9664 11.097C79.8638 11.2657 79.7574 11.3903 79.6474 11.471C79.5448 11.5443 79.4091 11.581 79.2404 11.581C79.0791 11.581 78.9031 11.526 78.7124 11.416C78.5291 11.2987 78.3128 11.174 78.0634 11.042C77.8141 10.91 77.5281 10.789 77.2054 10.679C76.8828 10.5617 76.5051 10.503 76.0724 10.503C75.3098 10.503 74.7378 10.6753 74.3564 11.02C73.9751 11.3573 73.7844 11.801 73.7844 12.351C73.7844 12.703 73.8871 12.9963 74.0924 13.231C74.3051 13.4583 74.5801 13.6563 74.9174 13.825C75.2621 13.9937 75.6508 14.144 76.0834 14.276C76.5161 14.408 76.9598 14.5547 77.4144 14.716C77.8691 14.87 78.3128 15.0533 78.7454 15.266C79.1781 15.4787 79.5631 15.7463 79.9004 16.069C80.2451 16.3917 80.5201 16.7877 80.7254 17.257C80.9381 17.719 81.0444 18.2837 81.0444 18.951C81.0444 19.677 80.9161 20.359 80.6594 20.997C80.4101 21.6277 80.0471 22.1813 79.5704 22.658C79.0938 23.1273 78.5034 23.4977 77.7994 23.769C77.1028 24.0403 76.3108 24.176 75.4234 24.176C74.9174 24.176 74.4114 24.1247 73.9054 24.022C73.4068 23.9193 72.9228 23.7763 72.4534 23.593C71.9914 23.4097 71.5551 23.1897 71.1444 22.933C70.7338 22.6763 70.3744 22.3903 70.0664 22.075L71.0344 20.513C71.1151 20.3957 71.2214 20.3003 71.3534 20.227C71.4854 20.1463 71.6248 20.106 71.7714 20.106C71.9694 20.106 72.1784 20.1793 72.3984 20.326C72.6184 20.4727 72.8714 20.634 73.1574 20.81C73.4434 20.986 73.7734 21.1473 74.1474 21.294C74.5288 21.4407 74.9834 21.514 75.5114 21.514C76.2814 21.514 76.8754 21.338 77.2934 20.986C77.7188 20.634 77.9314 20.1097 77.9314 19.413C77.9314 19.0097 77.8251 18.6833 77.6124 18.434C77.4071 18.1847 77.1358 17.9757 76.7984 17.807C76.4611 17.6383 76.0761 17.4953 75.6434 17.378C75.2108 17.2533 74.7671 17.1177 74.3124 16.971C73.8578 16.8243 73.4141 16.6483 72.9814 16.443C72.5488 16.2377 72.1638 15.9663 71.8264 15.629C71.4891 15.2917 71.2141 14.8737 71.0014 14.375C70.7961 13.8763 70.6934 13.2567 70.6934 12.516C70.6934 11.922 70.8108 11.3463 71.0454 10.789C71.2801 10.2317 71.6248 9.73667 72.0794 9.304C72.5341 8.87133 73.0914 8.523 73.7514 8.259C74.4188 7.995 75.1814 7.863 76.0394 7.863C77.0001 7.863 77.8874 8.01333 78.7014 8.314C79.5228 8.60733 80.2158 9.018 80.7804 9.546L79.9664 11.097Z" fill="white"/>
<path fill-rule="evenodd" clip-rule="evenodd" d="M3.83693 24.4591V17.0801H0V26.3462C0 28.3664 1.64269 29.9994 3.65707 29.9994H12.9257V26.1527H5.53957C4.60431 26.1527 3.83693 25.3906 3.83693 24.4591Z" fill="white"/>
<path fill-rule="evenodd" clip-rule="evenodd" d="M26.3549 0H17.0863V3.84677H24.4604C25.3957 3.84677 26.1631 4.60886 26.1631 5.55241V12.9314H30V3.65322C30.012 1.63306 28.3693 0 26.3549 0Z" fill="white"/>
<path fill-rule="evenodd" clip-rule="evenodd" d="M2.86572 0C2.12231 0.665322 1.67867 1.62097 1.65469 2.625C1.63071 3.62903 2.0144 4.59677 2.72183 5.31048L27.3501 30L27.5779 29.758C28.9329 28.3185 28.8969 26.0685 27.506 24.6653L2.86572 0Z" fill="white"/>
</svg>
