<svg width="30" height="30" viewBox="0 0 30 30" fill="none" xmlns="http://www.w3.org/2000/svg">
<rect width="30" height="30" rx="16" fill="#9197A3"/>
<path d="M14.7503 15.4497C16.7937 15.4497 18.4503 13.7932 18.4503 11.7498C18.4503 9.7063 16.7937 8.0498 14.7503 8.0498C12.7068 8.0498 11.0503 9.7063 11.0503 11.7498C11.0503 13.7932 12.7068 15.4497 14.7503 15.4497Z" stroke="white" stroke-miterlimit="10"/>
<path d="M14.7501 22.6492C11.3501 22.6492 7.8501 22.4491 7.8501 21.8491C7.8501 18.8491 10.9501 15.4492 14.7501 15.4492C15.9501 15.4492 17.0501 15.7491 18.0501 16.3491" stroke="white" stroke-miterlimit="10"/>
<path d="M18.1499 19.9492H24.1499V23.9492H18.1499V19.9492Z" stroke="white" stroke-width="0.926" stroke-miterlimit="10"/>
<path d="M19.1499 19.9497V19.4497C19.1499 18.0497 20.0499 16.8496 21.1499 16.8496C22.2499 16.8496 23.1499 17.9497 23.1499 19.4497V19.9497" stroke="white" stroke-width="0.883" stroke-miterlimit="10"/>
<path d="M20.6499 21.4492H21.6499V22.4492H20.6499V21.4492Z" fill="white"/>
</svg>
