<svg width="30" height="30" viewBox="0 0 30 30" fill="none" xmlns="http://www.w3.org/2000/svg">
<rect width="30" height="30" rx="16" fill="#4472A6"/>
<path d="M16.6663 18.6673V20.0007H15.333V18.6673H16.6663ZM18.6663 16.6673H19.9997V15.334H18.6663V16.6673ZM19.9997 22.0007H18.6663V23.334H19.9997V22.0007ZM21.9997 18.6673V20.0007H23.333V18.6673H21.9997ZM21.333 16.6673C21.5098 16.6673 21.6794 16.7376 21.8044 16.8626C21.9294 16.9876 21.9997 17.1572 21.9997 17.334H23.333C23.333 16.8036 23.1223 16.2948 22.7472 15.9198C22.3722 15.5447 21.8634 15.334 21.333 15.334V16.6673ZM21.9997 21.334C21.9997 21.5108 21.9294 21.6804 21.8044 21.8054C21.6794 21.9304 21.5098 22.0007 21.333 22.0007V23.334C21.8634 23.334 22.3722 23.1233 22.7472 22.7482C23.1223 22.3731 23.333 21.8644 23.333 21.334H21.9997ZM17.333 22.0007C17.1562 22.0007 16.9866 21.9304 16.8616 21.8054C16.7366 21.6804 16.6663 21.5108 16.6663 21.334H15.333C15.333 21.8644 15.5437 22.3731 15.9188 22.7482C16.2939 23.1233 16.8026 23.334 17.333 23.334V22.0007ZM19.473 18.5273C18.953 19.0473 18.1083 19.0487 17.5877 18.5287L17.5863 18.5273L14.6663 15.6073L13.713 16.5673C13.8997 16.9047 13.9977 17.2827 13.9997 17.6673C13.9997 18.1288 13.8628 18.5799 13.6064 18.9636C13.35 19.3474 12.9856 19.6464 12.5593 19.823C12.1329 19.9996 11.6638 20.0459 11.2111 19.9558C10.7585 19.8658 10.3427 19.6436 10.0164 19.3172C9.6901 18.9909 9.46788 18.5752 9.37784 18.1225C9.28781 17.6699 9.33402 17.2008 9.51062 16.7744C9.68723 16.348 9.9863 15.9836 10.37 15.7272C10.7537 15.4708 11.2049 15.334 11.6663 15.334C12.051 15.336 12.429 15.434 12.7663 15.6207L13.7263 14.6673L12.7663 13.714C12.4295 13.9003 12.0512 13.9988 11.6663 14.0007C11.2049 14.0007 10.7537 13.8638 10.37 13.6074C9.9863 13.351 9.68723 12.9866 9.51062 12.5602C9.33402 12.1339 9.28781 11.6647 9.37784 11.2121C9.46788 10.7595 9.6901 10.3437 10.0164 10.0174C10.3427 9.69108 10.7585 9.46885 11.2111 9.37882C11.6638 9.28879 12.1329 9.335 12.5593 9.5116C12.9856 9.6882 13.35 9.98727 13.6064 10.371C13.8628 10.7547 13.9997 11.2058 13.9997 11.6673C13.9979 12.0522 13.8993 12.4305 13.713 12.7673L14.6663 13.7273L17.253 11.1407C17.503 10.8907 17.8419 10.7501 18.1954 10.7499C18.5489 10.7496 18.888 10.8897 19.1383 11.1393L19.1397 11.1407L15.6063 14.6673L19.473 18.5273ZM11.6663 12.6673C11.7977 12.6673 11.9278 12.6414 12.0491 12.591C12.1705 12.5407 12.2807 12.467 12.3736 12.3741C12.4664 12.2812 12.5401 12.1709 12.5903 12.0495C12.6406 11.9281 12.6664 11.798 12.6663 11.6667C12.6663 11.5353 12.6404 11.4052 12.5901 11.2839C12.5398 11.1625 12.466 11.0523 12.3731 10.9594C12.2802 10.8665 12.1699 10.7929 12.0485 10.7427C11.9271 10.6924 11.797 10.6666 11.6657 10.6667C11.4004 10.6667 11.146 10.7722 10.9584 10.9599C10.7709 11.1475 10.6656 11.402 10.6657 11.6673C10.6658 11.9326 10.7712 12.187 10.9589 12.3746C11.1466 12.5621 11.401 12.6674 11.6663 12.6673ZM12.6663 17.6673C12.6663 17.536 12.6404 17.4059 12.5901 17.2845C12.5398 17.1632 12.466 17.0529 12.3731 16.9601C12.2802 16.8672 12.1699 16.7936 12.0485 16.7433C11.9271 16.6931 11.797 16.6673 11.6657 16.6673C11.5343 16.6674 11.4042 16.6933 11.2829 16.7436C11.1615 16.7939 11.0513 16.8676 10.9584 16.9605C10.8656 17.0535 10.7919 17.1638 10.7417 17.2851C10.6915 17.4065 10.6656 17.5366 10.6657 17.668C10.6658 17.9333 10.7712 18.1877 10.9589 18.3752C11.1466 18.5628 11.401 18.6681 11.6663 18.668C11.9316 18.6679 12.1861 18.5624 12.3736 18.3748C12.5611 18.1871 12.6664 17.9326 12.6663 17.6673Z" fill="white"/>
</svg>
