<svg width="30" height="30" viewBox="0 0 30 30" fill="none" xmlns="http://www.w3.org/2000/svg">
<rect width="30" height="30" rx="16" fill="#BEBFBF"/>
<path d="M24.875 18.4746L23.575 15.9746L24.775 13.4746H21.675L20.675 15.4746H13.375C13.075 15.4746 12.875 15.6746 12.875 15.9746C12.875 16.2746 13.075 16.3746 13.375 16.3746H20.575L21.575 18.3746L24.875 18.4746ZM22.375 14.4746H23.275L22.475 15.9746L23.175 17.4746H22.275L21.575 16.0746L22.375 14.4746Z" fill="white"/>
<path d="M18.975 17.4748C18.675 18.4748 18.275 19.2748 17.575 19.9748C16.475 21.0748 15.075 21.5748 13.675 21.5748C12.275 21.5748 10.775 20.9748 9.775 19.9748C7.575 17.7748 7.575 14.2748 9.775 12.0748C11.975 9.87476 15.475 9.87476 17.675 12.0748C18.375 12.7748 18.775 13.5748 19.075 14.4748H20.075C19.775 13.2748 19.175 12.2748 18.375 11.3748C15.775 8.7748 11.675 8.7748 9.075 11.3748C6.475 13.9748 6.475 18.0747 9.075 20.6747C10.275 21.8747 11.975 22.5748 13.675 22.5748C15.475 22.5748 17.075 21.8747 18.275 20.6747C19.175 19.7747 19.775 18.6748 20.075 17.4748L19.875 17.3748L18.975 17.4748Z" fill="white"/>
<path d="M15.575 14.1748C15.675 14.2748 15.675 14.3748 15.775 14.4748H16.975C16.775 14.0748 16.575 13.7748 16.275 13.4748C14.875 12.0748 12.575 12.0748 11.175 13.4748C9.775 14.8748 9.775 17.1748 11.175 18.5748C11.875 19.2748 12.875 19.6748 13.775 19.6748C14.675 19.6748 15.575 19.3748 16.275 18.6748C16.675 18.2748 16.875 17.9748 17.075 17.4748H15.975C15.875 17.5748 15.775 17.7748 15.575 17.9748C14.575 18.9748 12.875 18.9748 11.875 17.9748C10.875 16.9748 10.875 15.2749 11.875 14.2749C12.875 13.1749 14.475 13.1748 15.575 14.1748Z" fill="white"/>
</svg>

