<svg width="30" height="30" viewBox="0 0 30 30" fill="none" xmlns="http://www.w3.org/2000/svg">
<rect width="30" height="30" rx="16" fill="#8C9FC6"/>
<path d="M14.3753 14.1997C16.4188 14.1997 18.0753 12.5432 18.0753 10.4998C18.0753 8.4563 16.4188 6.7998 14.3753 6.7998C12.3319 6.7998 10.6753 8.4563 10.6753 10.4998C10.6753 12.5432 12.3319 14.1997 14.3753 14.1997Z" stroke="white" stroke-miterlimit="10"/>
<path d="M14.3751 21.3992C10.9751 21.3992 7.4751 21.1991 7.4751 20.5991C7.4751 17.5991 10.5751 14.1992 14.3751 14.1992C15.5751 14.1992 16.6751 14.4991 17.6751 15.0991" stroke="white" stroke-miterlimit="10"/>
<path d="M15.5249 20.7002C15.5249 18.2002 17.5249 16.2002 20.0249 16.2002C22.5249 16.2002 24.5249 18.2002 24.5249 20.7002C24.5249 23.2002 22.5249 25.2002 20.0249 25.2002C17.5249 25.2002 15.5249 23.2002 15.5249 20.7002ZM20.5249 22.5002L19.2249 21.2002L22.5249 21.2002L22.5249 20.2002L19.1249 20.2002L20.5249 18.8002L19.825 18.1002L17.1249 20.7002L19.7249 23.2002L20.5249 22.5002Z" fill="white"/>
</svg>
