<svg width="30" height="30" viewBox="0 0 30 30" fill="none" xmlns="http://www.w3.org/2000/svg">
<rect width="30" height="30" rx="16" fill="#338CF0"/>
<path d="M12.7998 22.2998H9.2998V7.2998H17.1998L21.2998 11.2998V14.7998" stroke="white" stroke-miterlimit="10"/>
<path d="M10.7998 11.2998H15.7998M10.7998 13.2998H19.7998M10.7998 15.2998H14.7998" stroke="white" stroke-miterlimit="10"/>
<path fill-rule="evenodd" clip-rule="evenodd" d="M18.4998 24.6998C20.8194 24.6998 22.6998 22.8194 22.6998 20.4998C22.6998 18.1802 20.8194 16.2998 18.4998 16.2998C16.1802 16.2998 14.2998 18.1802 14.2998 20.4998C14.2998 22.8194 16.1802 24.6998 18.4998 24.6998ZM21.1639 19.4744L20.5015 18.7252L17.6705 21.2285L16.5021 20.1675L15.8299 20.9078L17.6616 22.5712L21.1639 19.4744Z" fill="white"/>
</svg>
