<svg width="30" height="30" viewBox="0 0 30 30" fill="none" xmlns="http://www.w3.org/2000/svg">
<rect width="30" height="30" rx="16" fill="#338CF0"/>
<path d="M12.7998 22.2998H9.2998V7.2998H17.1998L21.2998 11.2998V14.7998" stroke="white" stroke-miterlimit="10"/>
<path d="M10.7998 11.2998H15.7998M10.7998 13.2998H19.7998M10.7998 15.2998H14.7998" stroke="white" stroke-miterlimit="10"/>
<path fill-rule="evenodd" clip-rule="evenodd" d="M18.4998 24.6998C20.8194 24.6998 22.6998 22.8194 22.6998 20.4998C22.6998 18.1802 20.8194 16.2998 18.4998 16.2998C16.1802 16.2998 14.2998 18.1802 14.2998 20.4998C14.2998 22.8194 16.1802 24.6998 18.4998 24.6998ZM17.5206 22.2493L18.4994 21.2477L19.4782 22.2493L20.1934 21.5503L19.1985 20.5324L20.257 19.4493L19.5418 18.7503L18.4994 19.817L17.457 18.7503L16.7418 19.4493L17.8003 20.5324L16.8054 21.5503L17.5206 22.2493Z" fill="white"/>
</svg>
