<svg width="30" height="30" viewBox="0 0 30 30" fill="none" xmlns="http://www.w3.org/2000/svg">
<rect width="30" height="30" rx="16" fill="#338CF0"/>
<path d="M12.8496 22.7002H9.34961V7.7002H17.2496L21.3496 11.7002V15.2002" stroke="white" stroke-miterlimit="10"/>
<path d="M18.4494 21.8002C17.9494 21.8002 17.3494 21.5002 17.0494 21.2002L16.6494 21.9001C16.9494 22.2001 17.4494 22.5002 17.9494 22.6002V23.3002H18.9494V22.6002C19.7494 22.5002 20.2494 21.9002 20.2494 21.2002C20.2494 19.4002 17.7494 20.0002 17.7494 19.2002C17.7494 18.9002 18.0494 18.6002 18.5494 18.6002C19.0494 18.6002 19.5494 18.8002 19.7494 19.1002L20.1494 18.4001C19.8494 18.1001 19.4494 17.9002 18.9494 17.8002V17.2002H17.9494V17.9001C17.2494 18.1001 16.8494 18.6002 16.8494 19.2002C16.8494 20.9002 19.3494 20.3002 19.3494 21.2002C19.2494 21.5002 18.9494 21.8002 18.4494 21.8002Z" fill="white"/>
<path d="M18.45 24.3004C20.7696 24.3004 22.65 22.4201 22.65 20.1005C22.65 17.7809 20.7696 15.9004 18.45 15.9004C16.1304 15.9004 14.25 17.7809 14.25 20.1005C14.25 22.4201 16.1304 24.3004 18.45 24.3004Z" stroke="white" stroke-miterlimit="10"/>
<path d="M10.8496 11.7002H15.8496M10.8496 13.7002H19.8496M10.8496 15.7002H14.8496" stroke="white" stroke-miterlimit="10"/>
</svg>
