<svg width="30" height="30" viewBox="0 0 30 30" fill="none" xmlns="http://www.w3.org/2000/svg">
<rect width="30" height="30" rx="16" fill="#338CF0"/>
<path d="M9 9H16V13H20V17H21V12.3L16.6 8H8V24H14V23H9V9ZM17 9.80005L19.3 12H17V9.80005Z" fill="white"/>
<path d="M13.0998 17.1V16.4C13.8998 16.3 14.3998 15.7 14.3998 15C14.3998 13.2 11.8998 13.8 11.8998 13C11.8998 12.7 12.1998 12.4 12.6998 12.4C13.1998 12.4 13.6998 12.6 13.8998 12.9L14.2998 12.2C13.9998 11.9 13.5998 11.7 13.0998 11.6V11H12.0998V11.7C11.3998 11.9 10.9998 12.4 10.9998 13C10.9998 14.7 13.4998 14.1 13.4998 15C13.3998 15.3 13.0998 15.6 12.5998 15.6C12.0998 15.6 11.4998 15.3 11.1998 15L10.7998 15.7C11.0998 16 11.5998 16.3 12.0998 16.4V17.1H13.0998ZM23.4998 19H15.5998L14.7998 17.7L13.9998 18.2L16.8998 22.9H21.6998L23.5998 19.8L23.7998 19.5L23.4998 19ZM21.0998 22H17.4998L16.2998 20H22.3998L21.0998 22Z" fill="white"/>
<path d="M20.8 24.8998C21.2418 24.8998 21.6 24.5416 21.6 24.0997C21.6 23.6579 21.2418 23.2998 20.8 23.2998C20.3582 23.2998 20 23.6579 20 24.0997C20 24.5416 20.3582 24.8998 20.8 24.8998Z" fill="white"/>
<path d="M17.8 24.8998C18.2418 24.8998 18.6 24.5416 18.6 24.0997C18.6 23.6579 18.2418 23.2998 17.8 23.2998C17.3582 23.2998 17 23.6579 17 24.0997C17 24.5416 17.3582 24.8998 17.8 24.8998Z" fill="white"/>
</svg>
