<svg width="16" height="16" viewBox="0 0 16 16" fill="none" xmlns="http://www.w3.org/2000/svg">
<path d="M5.6 3.06265C5.72269 2.84181 5.9022 2.6578 6.11994 2.52968C6.33767 2.40156 6.5857 2.33399 6.83833 2.33398H9.16167C9.4143 2.33399 9.66233 2.40156 9.88006 2.52968C10.0978 2.6578 10.2773 2.84181 10.4 3.06265L10.8287 3.83398H12.0833C12.5917 3.83398 13.0792 4.03592 13.4386 4.39536C13.7981 4.75481 14 5.24232 14 5.75065V8.01532C13.3036 7.56921 12.4937 7.33271 11.6667 7.33398C11.273 7.33398 10.8913 7.38665 10.5287 7.48498C10.3806 7.04448 10.12 6.65032 9.77262 6.34157C9.42527 6.03283 9.00327 5.82021 8.54844 5.72481C8.09361 5.6294 7.62175 5.65452 7.17961 5.79766C6.73748 5.9408 6.34043 6.19701 6.02782 6.54088C5.71521 6.88475 5.49789 7.30435 5.39741 7.75808C5.29692 8.21182 5.31676 8.68394 5.45495 9.12764C5.59315 9.57135 5.8449 9.97124 6.18525 10.2877C6.52561 10.6041 6.94275 10.8261 7.39533 10.9317C7.25719 11.7419 7.35078 12.5746 7.66533 13.334H3.91667C3.40834 13.334 2.92082 13.1321 2.56138 12.7726C2.20193 12.4132 2 11.9256 2 11.4173V5.75065C2 5.24232 2.20193 4.75481 2.56138 4.39536C2.92082 4.03592 3.40834 3.83398 3.91667 3.83398H5.17133L5.6 3.06265Z" fill="white"/>
<path d="M7.99997 6.5C7.54681 6.49937 7.10947 6.66659 6.77233 6.9694C6.4352 7.27221 6.22215 7.68915 6.17431 8.13978C6.12647 8.59041 6.24722 9.04279 6.51326 9.40964C6.7793 9.77649 7.17177 10.0318 7.61497 10.1263C8.00536 9.10356 8.76718 8.26568 9.7483 7.78C9.63057 7.40864 9.39766 7.0844 9.08333 6.85427C8.76899 6.62413 8.38954 6.50005 7.99997 6.5Z" fill="white"/>
<path d="M11.6667 15.3333C13.6917 15.3333 15.3333 13.6917 15.3333 11.6667C15.3333 9.64167 13.6917 8 11.6667 8C9.64167 8 8 9.64167 8 11.6667C8 13.6917 9.64167 15.3333 11.6667 15.3333ZM11.6667 9.33333C11.7551 9.33333 11.8399 9.36845 11.9024 9.43096C11.9649 9.49348 12 9.57826 12 9.66667V11.3333H13.6667C13.7551 11.3333 13.8399 11.3685 13.9024 11.431C13.9649 11.4935 14 11.5783 14 11.6667C14 11.7551 13.9649 11.8399 13.9024 11.9024C13.8399 11.9649 13.7551 12 13.6667 12H12V13.6667C12 13.7551 11.9649 13.8399 11.9024 13.9024C11.8399 13.9649 11.7551 14 11.6667 14C11.5783 14 11.4935 13.9649 11.431 13.9024C11.3685 13.8399 11.3333 13.7551 11.3333 13.6667V12H9.66667C9.57826 12 9.49348 11.9649 9.43096 11.9024C9.36845 11.8399 9.33333 11.7551 9.33333 11.6667C9.33333 11.5783 9.36845 11.4935 9.43096 11.431C9.49348 11.3685 9.57826 11.3333 9.66667 11.3333H11.3333V9.66667C11.3333 9.57826 11.3685 9.49348 11.431 9.43096C11.4935 9.36845 11.5783 9.33333 11.6667 9.33333Z" fill="white"/>
</svg>
