<svg width="48" height="48" viewBox="0 0 48 48" fill="none" xmlns="http://www.w3.org/2000/svg">
<rect x="0.5" y="0.5" width="47" height="47" rx="7.5" fill="white"/>
<path d="M27.9914 28.4167C27.9914 27.8644 28.4391 27.4167 28.9914 27.4167H36.5747C37.127 27.4167 37.5747 27.8644 37.5747 28.4167V36C37.5747 36.5523 37.127 37 36.5747 37H28.9914C28.4391 37 27.9914 36.5523 27.9914 36V28.4167ZM14.5747 28.4167C14.5747 27.8644 15.0224 27.4167 15.5747 27.4167H23.158C23.7103 27.4167 24.158 27.8644 24.158 28.4167V36C24.158 36.5523 23.7103 37 23.158 37H15.5747C15.0224 37 14.5747 36.5523 14.5747 36V28.4167ZM27.9914 15C27.9914 14.4477 28.4391 14 28.9914 14H36.5747C37.127 14 37.5747 14.4477 37.5747 15V22.5833C37.5747 23.1356 37.127 23.5833 36.5747 23.5833H28.9914C28.4391 23.5833 27.9914 23.1356 27.9914 22.5833V15Z" stroke="#BDBDBD" stroke-width="1.5" stroke-miterlimit="10" stroke-linejoin="round"/>
<path d="M10.8193 15.7705C10.6014 15.263 10.8362 14.6749 11.3437 14.4571L18.4765 11.395C18.984 11.1771 19.572 11.4119 19.7898 11.9194L22.852 19.0521C23.0698 19.5596 22.835 20.1476 22.3275 20.3655L15.1948 23.4276C14.6873 23.6455 14.0993 23.4107 13.8814 22.9032L10.8193 15.7705Z" stroke="#BDBDBD" stroke-width="1.5" stroke-miterlimit="10" stroke-linejoin="round"/>
<rect x="0.5" y="0.5" width="47" height="47" rx="7.5" stroke="#D6D6D6"/>
</svg>
